<?xml version="1.0" encoding="utf-8"?>
<!-- Generator: Adobe Illustrator 23.1.1, SVG Export Plug-In . SVG Version: 6.00 Build 0)  -->
<svg version="1.1" id="Capa_1" focusable="false" xmlns="http://www.w3.org/2000/svg" xmlns:xlink="http://www.w3.org/1999/xlink"
	 x="0px" y="0px" viewBox="0 0 24 24" style="enable-background:new 0 0 24 24;" xml:space="preserve">
<style type="text/css">
	.st0{fill:#47C418;}
</style>
<path class="st0" d="M23.6,12c0,6.4-5.2,11.6-11.6,11.6S0.4,18.4,0.4,12S5.6,0.4,12,0.4S23.6,5.6,23.6,12z M10.7,18.2l8.6-8.6
	c0.3-0.3,0.3-0.8,0-1.1l-1.1-1.1c-0.3-0.3-0.8-0.3-1.1,0l-7,7l-3.3-3.3c-0.3-0.3-0.8-0.3-1.1,0l-1.1,1.1c-0.3,0.3-0.3,0.8,0,1.1
	l4.9,4.9C9.9,18.4,10.4,18.4,10.7,18.2z"/>
</svg>
