<?xml version="1.0" encoding="utf-8"?>
<!-- Generator: Adobe Illustrator 23.1.1, SVG Export Plug-In . SVG Version: 6.00 Build 0)  -->
<svg version="1.1" id="Capa_1" xmlns="http://www.w3.org/2000/svg" xmlns:xlink="http://www.w3.org/1999/xlink" x="0px" y="0px"
	 viewBox="0 0 24 24" style="enable-background:new 0 0 24 24;" xml:space="preserve">
<style type="text/css">
	.st0{fill:#003770;}
</style>
<path class="st0" d="M11.9,3L11.9,3L3.6,4.9L3,5v14l0.6,0.1l8.2,1.8l0.1,0h1.6v-2.2H21V5.2h-7.5V3H11.9z M12,4.5v15l-7.5-1.6V6.2
	L12,4.5z M13.5,6.8h6v10.5h-6v-1.5H15v-1.5h-1.5v-0.8H15V12h-1.5v-0.8H15V9.8h-1.5V9H15V7.5h-1.5V6.8z M15.8,7.5V9h3V7.5H15.8z
	 M10.6,8.2L8.9,8.5l-0.9,2c-0.1,0.3-0.2,0.5-0.2,0.7h0c-0.1-0.2-0.1-0.5-0.2-0.6L7.1,8.8L5.5,9L5.4,9l1.3,3l-1.5,3l1.6,0.2l0.7-1.9
	c0.1-0.2,0.1-0.4,0.2-0.5h0c0,0.2,0.1,0.4,0.1,0.5l1,2.2l1.8,0.2l-2-3.8L10.6,8.2z M15.8,9.8v1.5h3V9.8H15.8z M15.8,12v1.5h3V12
	H15.8z M15.8,14.2v1.5h3v-1.5H15.8z"/>
</svg>
