<?xml version="1.0" encoding="utf-8"?>
<!-- Generator: Adobe Illustrator 23.1.1, SVG Export Plug-In . SVG Version: 6.00 Build 0)  -->
<svg version="1.1" id="Capa_1" focusable="false" xmlns="http://www.w3.org/2000/svg" xmlns:xlink="http://www.w3.org/1999/xlink"
	 x="0px" y="0px" viewBox="0 0 20 20" style="enable-background:new 0 0 20 20;" xml:space="preserve">
<style type="text/css">
	.st0{fill:#003770;}
</style>
<path class="st0" d="M10,6.1c-0.4,0-0.7,0.1-1.1,0.2c0.2,0.3,0.2,0.6,0.3,0.9c0,1.1-0.9,1.9-1.9,1.9c-0.3,0-0.7-0.1-0.9-0.3
	c-0.6,2.1,0.6,4.2,2.7,4.8c2.1,0.6,4.2-0.6,4.8-2.7c0.6-2.1-0.6-4.2-2.7-4.8C10.7,6.2,10.4,6.1,10,6.1z M19.9,9.5
	C18,5.8,14.3,3.3,10,3.3S2,5.8,0.1,9.5c-0.2,0.3-0.2,0.7,0,1c1.9,3.7,5.6,6.2,9.9,6.2s8-2.5,9.9-6.2C20,10.2,20,9.8,19.9,9.5z
	 M10,15c-3.4,0-6.6-1.9-8.3-5C3.4,6.9,6.6,5,10,5s6.6,1.9,8.3,5C16.6,13.1,13.4,15,10,15z"/>
</svg>
