<?xml version="1.0" encoding="utf-8"?>
<!-- Generator: Adobe Illustrator 23.1.1, SVG Export Plug-In . SVG Version: 6.00 Build 0)  -->
<svg version="1.1" id="Capa_1" xmlns="http://www.w3.org/2000/svg" xmlns:xlink="http://www.w3.org/1999/xlink" x="0px" y="0px"
	 viewBox="0 0 588.6 588.6" style="enable-background:new 0 0 588.6 588.6;" xml:space="preserve">
<style type="text/css">
	.st0{fill:#003770;}
</style>
<g>
	<path class="st0" d="M155.6,270c-5.1,0.1-8.5,0.7-10.3,1.2V305c2.1,0.5,4.7,0.7,8.3,0.7c13.4,0,21.7-7.1,21.7-19
		C175.3,276,168.2,269.8,155.6,270z"/>
	<path class="st0" d="M359,537.8c0.8,0,1.6,0.1,2.3,0.1h178.2c20.8,0,37.8-17,37.8-37.8V87c0-20.8-17-37.8-37.8-37.8H361.4
		c-0.8,0-1.6,0.1-2.3,0.1V0L11.2,46.4V541L359,588.6V537.8z M361.4,70.8h178.2c8.9,0,16.2,7.3,16.2,16.2v332.5
		c-13.8-35.6-30.8-83.5-56.4-77c-30.6,7.8-45.8,79.2-45.8,79.2h102.2v78.3c0,8.9-7.3,16.2-16.2,16.2H361.4c-0.8,0-1.6-0.1-2.3-0.2
		v-94.3h94.5c0,0-15.6-80.6-58.8-123.8c-12.3-12.3-24.6-7.5-35.7,5.7V199.8c4.7,7.5,13.1,12.6,22.6,12.6c14.8,0,26.7-12,26.7-26.7
		c0-14.8-12-26.7-26.7-26.7c-9.6,0-17.9,5.1-22.6,12.6V71C359.8,70.9,360.6,70.8,361.4,70.8z M101,323.6c0,32-14.3,42.8-36.9,42.2
		c-5.3-0.1-12.2-1.3-16.6-3l2.6-19.9c3.1,1.2,7.2,2.1,11.7,2.1c9.7,0.2,15.8-4.5,15.8-21.8v-69.9l23.5-0.6L101,323.6L101,323.6
		L101,323.6z M190.3,313.6c-8.8,8.4-21.6,12.1-36.5,12c-3.3,0-6.2-0.2-8.5-0.6V366l-24.3-0.6V253.6c7.5-1.5,18.1-2.8,33.3-3.2
		c15.5-0.4,26.7,2.4,34.3,8.5c7.3,5.7,12.2,15.4,12.2,26.9C200.9,297.3,197.1,307,190.3,313.6z M228.8,353.4
		c-10.8-10.4-16.7-25.9-16.5-43.2c0.2-39.2,28.7-62.4,68.5-63.4c16-0.4,28.5,2.4,34.7,5.1l-6,22.4c-6.9-2.8-15.5-5-29.1-4.8
		c-23,0.4-40.1,13.4-40.1,39.3c0,24.6,15.5,39.4,38.1,39.8c6.4,0.1,11.6-0.5,13.8-1.6v-25.5l-19.1-0.1v-21.4l46.6-0.2v65.1
		c-8.9,2.7-25.5,6.3-41.8,5.9C255.5,370.1,239.7,364.2,228.8,353.4z"/>
	<path class="st0" d="M472,276.7c5.4,0,10.5-0.6,14.9-1.5c5.2,2.2,11.6,3.6,18.5,3.6c17.7,0,32-8.7,32-19.3
		c0-10.7-14.3-19.3-32-19.3c-6.6,0-12.8,1.2-17.9,3.3c-2.1-2-4.9-3.3-8-3.3h-4.6c-5.9,0-10.6,4.5-11.3,10.2
		c-14.4,1.5-25,6.7-25,12.9C438.6,270.7,453.5,276.7,472,276.7z"/>
</g>
</svg>
