<?xml version="1.0" encoding="utf-8"?>
<!-- Generator: Adobe Illustrator 23.1.1, SVG Export Plug-In . SVG Version: 6.00 Build 0)  -->
<svg version="1.1" id="Capa_1" xmlns="http://www.w3.org/2000/svg" xmlns:xlink="http://www.w3.org/1999/xlink" x="0px" y="0px"
	 viewBox="0 0 585.9 585.9" style="enable-background:new 0 0 585.9 585.9;" xml:space="preserve">
<style type="text/css">
	.st0{fill:#003770;}
</style>
<g>
	<path class="st0" d="M60.4,245.1c-4.6,0.1-7.7,0.6-9.3,1.1v32.1c1.9,0.5,4.3,0.6,7.5,0.6c12.1,0,19.7-6.7,19.7-18
		C78.3,250.9,71.8,245,60.4,245.1z"/>
	<path class="st0" d="M357.4,535.3c0.8,0,1.5,0.1,2.3,0.1h177.4c20.7,0,37.6-16.9,37.6-37.6V86.6c0-20.7-16.9-37.6-37.6-37.6H359.7
		c-0.8,0-1.6,0.1-2.3,0.1V0L11.2,46.2v492.3l346.2,47.4L357.4,535.3L357.4,535.3z M553.2,288.4H514V246h39.2V288.4z M514.3,330.8
		h38.9v42.4h-38.9V330.8z M359.7,70.5h177.4c8.9,0,16.1,7.2,16.1,16.1v118H518c-1.6,0-3.1-0.4-4.5-1V246h-42v42.4h42v42.4h-41.7
		v42.4h42v42.4h39.4v82.2c0,8.9-7.2,16.1-16.1,16.1H359.7c-0.8,0-1.6-0.1-2.3-0.2v-98.1h29.5v-42.4h-29.5v-42.4h29.2v-42.4h-29.2
		V246h29.2v-42.4h-29.2V70.7C358.2,70.6,358.9,70.5,359.7,70.5z M91.9,286.6c-7.9,8-19.6,11.5-33.1,11.4c-3,0-5.7-0.2-7.7-0.5v38.9
		L29,335.8V229.6c6.8-1.5,16.5-2.7,30.2-3c14.1-0.4,24.3,2.3,31.1,8.1c6.6,5.5,11.1,14.6,11.1,25.5C101.4,271.1,98,280.3,91.9,286.6
		z M207.8,340.4l-26.9-0.7L157.2,295c-6.5-12.2-13.6-26.9-18.9-40.1l-0.5,0.2c0.6,15,1,30.9,1,49.4v34.1l-22.2-0.6V225.9l28.3-0.7
		l22.8,41.5c6.6,12.1,13.2,26.5,18.2,39.6l0.5,0c-1.7-15.3-2.2-30.9-2.2-48.3v-33.8l23.6-0.6L207.8,340.4L207.8,340.4L207.8,340.4z
		 M332.8,338c-8.9,2.7-25.5,6.3-41.9,5.9c-22.3-0.6-38.2-6.5-49.1-17.3c-10.8-10.4-16.7-25.8-16.6-43.1
		c0.2-39.2,28.7-62.3,68.6-63.3c16.1-0.4,28.6,2.3,34.8,5.1l-6,22.4c-6.9-2.8-15.5-5-29.2-4.8c-23.1,0.4-40.2,13.4-40.2,39.2
		c0,24.6,15.5,39.4,38.2,39.7c6.4,0.1,11.6-0.5,13.8-1.6v-25.5l-19.1-0.1v-21.4l46.7-0.2L332.8,338L332.8,338z"/>
	<polygon class="st0" points="513.5,203.6 513.6,203.6 513.6,203.6 	"/>
	<polygon class="st0" points="428.9,330.8 387.2,330.8 387.2,373.2 429.2,373.2 429.2,415.6 471.6,415.6 471.6,373.2 429.6,373.2 
		429.6,330.8 471.3,330.8 471.3,288.4 429.3,288.4 429.3,246 471.3,246 471.3,203.6 429.3,203.6 429.3,161.2 386.9,161.2 
		386.9,203.6 428.9,203.6 428.9,246 386.9,246 386.9,288.4 428.9,288.4 	"/>
	<polygon class="st0" points="471.6,161.2 471.6,203.6 513.5,203.6 513.5,161.2 	"/>
</g>
</svg>
