<?xml version="1.0" encoding="utf-8"?>
<!-- Generator: Adobe Illustrator 23.1.1, SVG Export Plug-In . SVG Version: 6.00 Build 0)  -->
<svg version="1.1" id="Capa_1" xmlns="http://www.w3.org/2000/svg" xmlns:xlink="http://www.w3.org/1999/xlink" x="0px" y="0px"
	 viewBox="0 0 585.9 585.9" style="enable-background:new 0 0 585.9 585.9;" xml:space="preserve">
<style type="text/css">
	.st0{fill:#003770;}
</style>
<g>
	<path class="st0" d="M357.4,535.3c0.8,0,1.5,0.1,2.3,0.1h177.4c20.8,0,37.6-16.9,37.6-37.6V86.6c0-20.7-16.9-37.6-37.6-37.6H359.7
		c-0.8,0-1.6,0.1-2.3,0.1V0L11.2,46.2v492.3l346.2,47.4V535.3z M359.7,70.5h177.4c8.9,0,16.1,7.2,16.1,16.1v411.2
		c0,8.9-7.2,16.1-16.1,16.1H359.7c-0.8,0-1.6-0.1-2.3-0.2V319.2c9.9,37.7,44.2,65.6,85,65.6c48.6,0,88-39.4,88-88h-88v-88
		c-40.9,0-75.1,27.9-85,65.6V70.7C358.2,70.6,358.9,70.5,359.7,70.5z M116.4,297.1c-8.2,8.1-20.1,11.7-34,11.6
		c-3.1,0-5.8-0.2-7.9-0.6v39.4L51.9,347V239.3c7-1.5,16.9-2.7,31-3.1c14.5-0.4,24.9,2.3,32,8.2c6.8,5.5,11.4,14.8,11.4,25.9
		C126.3,281.4,122.8,290.8,116.4,297.1z M212.1,297.3c-8.9,8.5-21.9,12.2-37,12.1c-3.3,0-6.3-0.2-8.6-0.6v41.1l-24.7-0.6V237.1
		c7.6-1.5,18.4-2.8,33.7-3.2c15.8-0.4,27.1,2.4,34.8,8.5c7.4,5.8,12.4,15.5,12.4,27C222.8,280.8,218.9,290.7,212.1,297.3z
		 M324.9,254.2l-34.3,0.6v98.4l-27.8-0.7v-97.2l-32,0.5v-22.5l94.1-2.4V254.2z"/>
	<path class="st0" d="M84.1,255.1c-4.7,0.1-7.9,0.6-9.6,1.2v32.6c2,0.5,4.4,0.6,7.8,0.6c12.4,0,20.2-6.8,20.2-18.3
		C102.5,260.9,95.8,254.9,84.1,255.1z"/>
	<path class="st0" d="M176.9,253.5c-5.1,0.1-8.6,0.7-10.4,1.2v34c2.1,0.5,4.8,0.7,8.4,0.7c13.5,0,22-7.1,22-19.1
		C196.9,259.5,189.6,253.3,176.9,253.5z"/>
	<path class="st0" d="M454.4,282.9L454.4,282.9l88,0c0-24.8-10.3-47.1-26.7-63.1L454.4,282.9z"/>
	<path class="st0" d="M453.4,267.5l62.2-62.2c-17.5-17.5-39.3-26-62.3-25.7L453.4,267.5L453.4,267.5z"/>
</g>
</svg>
