<?xml version="1.0" encoding="utf-8"?>
<!-- Generator: Adobe Illustrator 23.1.1, SVG Export Plug-In . SVG Version: 6.00 Build 0)  -->
<svg version="1.1" id="Capa_1" xmlns="http://www.w3.org/2000/svg" xmlns:xlink="http://www.w3.org/1999/xlink" x="0px" y="0px"
	 viewBox="0 0 588.6 588.6" style="enable-background:new 0 0 588.6 588.6;" xml:space="preserve">
<style type="text/css">
	.st0{fill:#003770;}
</style>
<g>
	<path class="st0" d="M359,537.8c0.8,0,1.6,0.1,2.3,0.1h178.2c20.8,0,37.8-17,37.8-37.8V87c0-20.8-17-37.8-37.8-37.8H361.4
		c-0.8,0-1.6,0.1-2.3,0.1V0L11.2,46.4V541L359,588.6V537.8z M361.4,70.8h178.2c8.9,0,16.2,7.3,16.2,16.2v413.1
		c0,8.9-7.3,16.2-16.2,16.2H361.4c-0.8,0-1.6-0.1-2.3-0.2V368.8h104.6v-20.4h81.8v-27.7h-45.7v-11h18.1v-8.1h-18.1V292h18.1v-8.1
		h-18.1v-9.2h18.1v-8.1h-18.1v-7.1h45.7v-27.7h-81.8v27.7h27.7v61.2h-27.7v26.5H359v-9.9h83.5v-94.5H359v-11.1h104.6V210H359V71
		C359.8,70.9,360.6,70.8,361.4,70.8z M89.1,360.8c-1.7-3.2-4.2-12.4-7.3-26.2c-2.8-13.9-7.2-17.8-16.7-18l-7-0.1v43.4l-22.6-0.6
		V251.5c7.3-1.5,18.2-2.7,30.5-3c15.3-0.4,26.2,1.9,33.7,8.1c6.3,5.2,9.8,13.1,9.8,23.5c0,14.4-9.6,24.3-18.7,27.8v0.5
		c7.3,3.2,11.4,10.7,14.1,21.2c3.3,12.8,6.7,27.6,8.7,32.1L89.1,360.8z M195.4,363.8l-8.9-30.3l-32.3-0.5l-7.9,29.4l-25.6-0.7
		l33.5-114.4l33.5-0.8l36.1,118.1L195.4,363.8z M304.3,366.8c-2.1-3.5-5.1-13.6-8.8-28.8c-3.4-15.3-8.8-19.5-20.2-19.8l-8.4-0.1
		v47.6l-27.2-0.8V246.8c8.8-1.6,21.9-3,36.7-3.4c18.5-0.4,31.6,2,40.7,8.8c7.6,5.7,11.8,14.3,11.8,25.8c0,15.9-11.6,26.7-22.6,30.5
		v0.6c8.9,3.5,13.8,11.8,17.1,23.3c4,14.1,8,30.4,10.5,35.3L304.3,366.8z"/>
	<path class="st0" d="M170,266.5h-0.3c-1.7,6.9-3.4,15.7-5.2,22.4l-6.6,24.5l25,0.2l-7.1-24.8C173.7,282,171.7,273.4,170,266.5z"/>
	<path class="st0" d="M279.6,263.8c-6.8,0.1-10.6,0.7-12.6,1.1v33.4l11,0c14.1,0,22.5-6.9,22.5-17.7
		C300.4,269.4,292.6,263.8,279.6,263.8z"/>
	<path class="st0" d="M68.6,267c-5.6,0.1-8.8,0.6-10.5,1v30.5h9.1c11.7,0,18.6-6.3,18.6-16.1C85.9,272,79.4,267,68.6,267z"/>
</g>
</svg>
